<svg xmlns="http://www.w3.org/2000/svg" width="131.491" height="49.037" viewBox="0 0 34.79 12.974"><g style="fill:#333"><path d="M52.897 88.634q-.837 0-1.276-.795-.44-.796-.44-2.207 0-1.416.44-2.207.439-.79 1.23-.79.268 0 .496.093.232.093.423.284.197.186.341.47h.052q-.015-.336-.031-.573-.01-.243-.01-.409v-2.01h1.374v8.041h-1.1l-.192-.636h-.082q-.166.259-.347.424-.175.16-.387.238-.212.077-.491.077zm.408-1.152q.414 0 .615-.403.202-.403.202-1.266v-.33q0-.859-.197-1.251-.19-.398-.62-.398-.372 0-.553.454-.175.45-.175 1.334 0 .935.186 1.4.186.46.542.46zM49.22 82.635q.733 0 1.126.532.398.527.398 1.535v3.829H49.37V85.1q0-.61-.124-.92-.125-.315-.47-.315-.435 0-.61.423-.171.424-.171 1.458v2.785H46.62v-5.788h1.09l.145.74h.088q.13-.275.316-.46.186-.192.428-.29.243-.098.533-.098zM44.25 82.635q.843 0 1.282.522.444.516.444 1.545v3.829H44.97l-.222-.775h-.031q-.176.294-.378.49-.196.197-.45.29-.252.098-.594.098-.48 0-.78-.258-.294-.258-.429-.672-.134-.413-.134-.878 0-.905.501-1.37.501-.465 1.426-.501l.719-.031v-.233q0-.475-.15-.708-.145-.237-.48-.237-.249 0-.543.098-.295.098-.646.305l-.383-1.028q.393-.238.863-.362t.993-.124zm.347 3.209-.388.02q-.44.021-.656.249-.212.222-.212.65 0 .388.13.58.134.19.387.19.325 0 .532-.315.207-.315.207-.847zM41.612 82.635q.114 0 .222.02.109.016.253.057l-.124 1.468q-.103-.041-.227-.057-.119-.015-.264-.015-.237 0-.423.103t-.316.3q-.124.19-.19.465-.063.268-.063.604v2.951h-1.374v-5.788h1.059l.196.951h.068q.113-.274.284-.517.17-.243.398-.392.227-.15.5-.15zM34.131 80.976h1.99q1.168 0 1.746.46.584.455.584 1.4 0 .445-.124.796-.118.346-.346.574-.227.227-.548.315v.052q.403.108.657.34.258.233.377.59.119.356.119.837 0 .672-.269 1.163-.264.49-.765.76-.501.268-1.199.268h-2.222zm1.452 3.06h.538q.439 0 .65-.254.218-.253.218-.744 0-.43-.222-.651-.222-.228-.667-.228h-.517zm0 1.152v2.123h.657q.434 0 .65-.268.218-.269.218-.817 0-.336-.109-.563-.108-.233-.315-.351-.201-.124-.501-.124z" style="font-weight:700;font-stretch:condensed;font-size:10.5833px;line-height:1.25;font-family:&quot;Open Sans Condensed&quot;;-inkscape-font-specification:&quot;Open Sans Condensed, Bold Condensed&quot;;fill:#333;stroke-width:.264583" transform="translate(-34.131 -79.303)"/></g><g transform="translate(-34.131 -78.117)"><path d="M61.858 81.685h1.441l.677 2.8q.047.192.088.388.042.192.067.372.031.181.047.341h.041q.026-.211.078-.475.051-.269.134-.61l.636-2.816h1.426l-1.726 6.35q-.191.714-.455 1.148-.258.434-.61.63-.35.202-.826.202-.176 0-.336-.026-.16-.026-.32-.062v-1.214q.103.03.206.052.109.02.207.02.212 0 .34-.082.135-.083.239-.305.103-.223.222-.641l.088-.346zM61.734 82.827h-.93v4.646h-1.38v-4.646h-.667v-.739l.667-.403v-.18q0-.735.15-1.205.15-.47.48-.698.336-.227.873-.227.305 0 .548.057.248.052.574.176l-.295 1.038q-.144-.046-.274-.072-.129-.031-.263-.031-.222 0-.32.196-.094.191-.094.667v.279h.93zM57.912 79.406q.387 0 .568.207.18.201.18.589 0 .377-.19.579-.186.196-.558.196-.362 0-.558-.196-.197-.202-.197-.58 0-.397.181-.593.186-.202.574-.202zM58.599 81.685v5.788h-1.375v-5.788Z" style="font-weight:700;font-stretch:condensed;font-size:10.5833px;line-height:1.25;font-family:&quot;Open Sans Condensed&quot;;-inkscape-font-specification:&quot;Open Sans Condensed, Bold Condensed&quot;;fill:#666;stroke-width:.264583" transform="translate(.78 -.09)"/><rect width="12.156" height="12.498" x="56.528" y="78.355" ry="0" style="fill:none;stroke:#b0b0b0;stroke-width:.476332;stroke-linecap:square;stroke-linejoin:round;stroke-dasharray:.476332,1.42899;stroke-dashoffset:0;stroke-opacity:1;paint-order:markers fill stroke"/></g></svg>